<svg width="187" height="54" viewBox="0 0 187 54" fill="none" xmlns="http://www.w3.org/2000/svg">
<path d="M8.04414 34.13L1.95414 27.5L8.04414 20.87H14.4941L8.37414 27.5L14.4941 34.13H8.04414ZM17.6076 29.6C17.6076 27.88 17.9276 26.37 18.5676 25.07C19.2276 23.77 20.1176 22.77 21.2376 22.07C22.3576 21.37 23.6076 21.02 24.9876 21.02C26.0876 21.02 27.0876 21.25 27.9876 21.71C28.9076 22.17 29.6276 22.79 30.1476 23.57V15.8H35.2776V38H30.1476V35.6C29.6676 36.4 28.9776 37.04 28.0776 37.52C27.1976 38 26.1676 38.24 24.9876 38.24C23.6076 38.24 22.3576 37.89 21.2376 37.19C20.1176 36.47 19.2276 35.46 18.5676 34.16C17.9276 32.84 17.6076 31.32 17.6076 29.6ZM30.1476 29.63C30.1476 28.35 29.7876 27.34 29.0676 26.6C28.3676 25.86 27.5076 25.49 26.4876 25.49C25.4676 25.49 24.5976 25.86 23.8776 26.6C23.1776 27.32 22.8276 28.32 22.8276 29.6C22.8276 30.88 23.1776 31.9 23.8776 32.66C24.5976 33.4 25.4676 33.77 26.4876 33.77C27.5076 33.77 28.3676 33.4 29.0676 32.66C29.7876 31.92 30.1476 30.91 30.1476 29.63ZM41.5689 19.52C40.6689 19.52 39.9289 19.26 39.3489 18.74C38.7889 18.2 38.5089 17.54 38.5089 16.76C38.5089 15.96 38.7889 15.3 39.3489 14.78C39.9289 14.24 40.6689 13.97 41.5689 13.97C42.4489 13.97 43.1689 14.24 43.7289 14.78C44.3089 15.3 44.5989 15.96 44.5989 16.76C44.5989 17.54 44.3089 18.2 43.7289 18.74C43.1689 19.26 42.4489 19.52 41.5689 19.52ZM44.1189 21.26V38H38.9889V21.26H44.1189ZM55.3666 33.2L58.9966 21.26H64.4566L58.5166 38H52.1866L46.2466 21.26H51.7366L55.3666 33.2Z" fill="#6300FF"/>
<path d="M69.8654 29.63C69.8654 27.89 70.2154 26.37 70.9154 25.07C71.6354 23.77 72.6254 22.77 73.8854 22.07C75.1654 21.37 76.6254 21.02 78.2654 21.02C80.3654 21.02 82.1154 21.57 83.5154 22.67C84.9354 23.77 85.8654 25.32 86.3054 27.32H80.8454C80.3854 26.04 79.4954 25.4 78.1754 25.4C77.2354 25.4 76.4854 25.77 75.9254 26.51C75.3654 27.23 75.0854 28.27 75.0854 29.63C75.0854 30.99 75.3654 32.04 75.9254 32.78C76.4854 33.5 77.2354 33.86 78.1754 33.86C79.4954 33.86 80.3854 33.22 80.8454 31.94H86.3054C85.8654 33.9 84.9354 35.44 83.5154 36.56C82.0954 37.68 80.3454 38.24 78.2654 38.24C76.6254 38.24 75.1654 37.89 73.8854 37.19C72.6254 36.49 71.6354 35.49 70.9154 34.19C70.2154 32.89 69.8654 31.37 69.8654 29.63ZM94.1795 15.8V38H89.0495V15.8H94.1795ZM96.8771 29.6C96.8771 27.88 97.1971 26.37 97.8371 25.07C98.4971 23.77 99.3871 22.77 100.507 22.07C101.627 21.37 102.877 21.02 104.257 21.02C105.437 21.02 106.467 21.26 107.347 21.74C108.247 22.22 108.937 22.85 109.417 23.63V21.26H114.547V38H109.417V35.63C108.917 36.41 108.217 37.04 107.317 37.52C106.437 38 105.407 38.24 104.227 38.24C102.867 38.24 101.627 37.89 100.507 37.19C99.3871 36.47 98.4971 35.46 97.8371 34.16C97.1971 32.84 96.8771 31.32 96.8771 29.6ZM109.417 29.63C109.417 28.35 109.057 27.34 108.337 26.6C107.637 25.86 106.777 25.49 105.757 25.49C104.737 25.49 103.867 25.86 103.147 26.6C102.447 27.32 102.097 28.32 102.097 29.6C102.097 30.88 102.447 31.9 103.147 32.66C103.867 33.4 104.737 33.77 105.757 33.77C106.777 33.77 107.637 33.4 108.337 32.66C109.057 31.92 109.417 30.91 109.417 29.63ZM125.068 38.24C123.608 38.24 122.308 37.99 121.168 37.49C120.028 36.99 119.128 36.31 118.468 35.45C117.808 34.57 117.438 33.59 117.358 32.51H122.428C122.488 33.09 122.758 33.56 123.238 33.92C123.718 34.28 124.308 34.46 125.008 34.46C125.648 34.46 126.138 34.34 126.478 34.1C126.838 33.84 127.018 33.51 127.018 33.11C127.018 32.63 126.768 32.28 126.268 32.06C125.768 31.82 124.958 31.56 123.838 31.28C122.638 31 121.638 30.71 120.838 30.41C120.038 30.09 119.348 29.6 118.768 28.94C118.188 28.26 117.898 27.35 117.898 26.21C117.898 25.25 118.158 24.38 118.678 23.6C119.218 22.8 119.998 22.17 121.018 21.71C122.058 21.25 123.288 21.02 124.708 21.02C126.808 21.02 128.458 21.54 129.658 22.58C130.878 23.62 131.578 25 131.758 26.72H127.018C126.938 26.14 126.678 25.68 126.238 25.34C125.818 25 125.258 24.83 124.558 24.83C123.958 24.83 123.498 24.95 123.178 25.19C122.858 25.41 122.698 25.72 122.698 26.12C122.698 26.6 122.948 26.96 123.448 27.2C123.968 27.44 124.768 27.68 125.848 27.92C127.088 28.24 128.098 28.56 128.878 28.88C129.658 29.18 130.338 29.68 130.918 30.38C131.518 31.06 131.828 31.98 131.848 33.14C131.848 34.12 131.568 35 131.008 35.78C130.468 36.54 129.678 37.14 128.638 37.58C127.618 38.02 126.428 38.24 125.068 38.24ZM141.797 38.24C140.337 38.24 139.037 37.99 137.897 37.49C136.757 36.99 135.857 36.31 135.197 35.45C134.537 34.57 134.167 33.59 134.087 32.51H139.157C139.217 33.09 139.487 33.56 139.967 33.92C140.447 34.28 141.037 34.46 141.737 34.46C142.377 34.46 142.867 34.34 143.207 34.1C143.567 33.84 143.747 33.51 143.747 33.11C143.747 32.63 143.497 32.28 142.997 32.06C142.497 31.82 141.687 31.56 140.567 31.28C139.367 31 138.367 30.71 137.567 30.41C136.767 30.09 136.077 29.6 135.497 28.94C134.917 28.26 134.627 27.35 134.627 26.21C134.627 25.25 134.887 24.38 135.407 23.6C135.947 22.8 136.727 22.17 137.747 21.71C138.787 21.25 140.017 21.02 141.437 21.02C143.537 21.02 145.187 21.54 146.387 22.58C147.607 23.62 148.307 25 148.487 26.72H143.747C143.667 26.14 143.407 25.68 142.967 25.34C142.547 25 141.987 24.83 141.287 24.83C140.687 24.83 140.227 24.95 139.907 25.19C139.587 25.41 139.427 25.72 139.427 26.12C139.427 26.6 139.677 26.96 140.177 27.2C140.697 27.44 141.497 27.68 142.577 27.92C143.817 28.24 144.827 28.56 145.607 28.88C146.387 29.18 147.067 29.68 147.647 30.38C148.247 31.06 148.557 31.98 148.577 33.14C148.577 34.12 148.297 35 147.737 35.78C147.197 36.54 146.407 37.14 145.367 37.58C144.347 38.02 143.157 38.24 141.797 38.24ZM168.695 21.41V25.94H151.895V21.41H168.695ZM168.695 29.06V33.59H151.895V29.06H168.695ZM173.774 16.94H179.024L175.664 24.98H172.214L173.774 16.94ZM180.584 16.94H185.834L182.474 24.98H179.024L180.584 16.94Z" fill="#C4C4C4"/>
</svg>
