<svg width="82" height="102" viewBox="0 0 82 102" fill="none" xmlns="http://www.w3.org/2000/svg">
<path d="M9.78875 44.72H18.7488V50H2.94875V21.92H9.78875V44.72Z" fill="#6300FF"/>
<path d="M34.0373 50.28C31.3973 50.28 28.9707 49.6667 26.7573 48.44C24.5707 47.2133 22.824 45.5067 21.5173 43.32C20.2373 41.1067 19.5973 38.6267 19.5973 35.88C19.5973 33.1333 20.2373 30.6667 21.5173 28.48C22.824 26.2933 24.5707 24.5867 26.7573 23.36C28.9707 22.1333 31.3973 21.52 34.0373 21.52C36.6773 21.52 39.0907 22.1333 41.2773 23.36C43.4907 24.5867 45.224 26.2933 46.4773 28.48C47.7573 30.6667 48.3973 33.1333 48.3973 35.88C48.3973 38.6267 47.7573 41.1067 46.4773 43.32C45.1973 45.5067 43.464 47.2133 41.2773 48.44C39.0907 49.6667 36.6773 50.28 34.0373 50.28ZM34.0373 44.04C36.2773 44.04 38.064 43.2933 39.3973 41.8C40.7573 40.3067 41.4373 38.3333 41.4373 35.88C41.4373 33.4 40.7573 31.4267 39.3973 29.96C38.064 28.4667 36.2773 27.72 34.0373 27.72C31.7707 27.72 29.9573 28.4533 28.5973 29.92C27.264 31.3867 26.5973 33.3733 26.5973 35.88C26.5973 38.36 27.264 40.3467 28.5973 41.84C29.9573 43.3067 31.7707 44.04 34.0373 44.04Z" fill="#C4C4C4"/>
<path d="M66.0373 80.28C63.3973 80.28 60.9707 79.6667 58.7573 78.44C56.5707 77.2133 54.824 75.5067 53.5173 73.32C52.2373 71.1067 51.5973 68.6267 51.5973 65.88C51.5973 63.1333 52.2373 60.6667 53.5173 58.48C54.824 56.2933 56.5707 54.5867 58.7573 53.36C60.9707 52.1333 63.3973 51.52 66.0373 51.52C68.6773 51.52 71.0907 52.1333 73.2773 53.36C75.4907 54.5867 77.224 56.2933 78.4773 58.48C79.7573 60.6667 80.3973 63.1333 80.3973 65.88C80.3973 68.6267 79.7573 71.1067 78.4773 73.32C77.1973 75.5067 75.464 77.2133 73.2773 78.44C71.0907 79.6667 68.6773 80.28 66.0373 80.28ZM66.0373 74.04C68.2773 74.04 70.064 73.2933 71.3973 71.8C72.7573 70.3067 73.4373 68.3333 73.4373 65.88C73.4373 63.4 72.7573 61.4267 71.3973 59.96C70.064 58.4667 68.2773 57.72 66.0373 57.72C63.7707 57.72 61.9573 58.4533 60.5973 59.92C59.264 61.3867 58.5973 63.3733 58.5973 65.88C58.5973 68.36 59.264 70.3467 60.5973 71.84C61.9573 73.3067 63.7707 74.04 66.0373 74.04Z" fill="#C4C4C4"/>
<path d="M39.3856 60.8C38.879 59.8667 38.1456 59.16 37.1856 58.68C36.2523 58.1733 35.1456 57.92 33.8656 57.92C31.6523 57.92 29.879 58.6533 28.5456 60.12C27.2123 61.56 26.5456 63.4933 26.5456 65.92C26.5456 68.5067 27.239 70.5333 28.6256 72C30.039 73.44 31.9723 74.16 34.4256 74.16C36.1056 74.16 37.519 73.7333 38.6656 72.88C39.839 72.0267 40.6923 70.8 41.2256 69.2H32.5456V64.16H47.4256V70.52C46.919 72.2267 46.0523 73.8133 44.8256 75.28C43.6256 76.7467 42.0923 77.9333 40.2256 78.84C38.359 79.7467 36.2523 80.2 33.9056 80.2C31.1323 80.2 28.6523 79.6 26.4656 78.4C24.3056 77.1733 22.6123 75.48 21.3856 73.32C20.1856 71.16 19.5856 68.6933 19.5856 65.92C19.5856 63.1467 20.1856 60.68 21.3856 58.52C22.6123 56.3333 24.3056 54.64 26.4656 53.44C28.6256 52.2133 31.0923 51.6 33.8656 51.6C37.2256 51.6 40.0523 52.4133 42.3456 54.04C44.6656 55.6667 46.199 57.92 46.9456 60.8H39.3856Z" fill="#6300FF"/>
</svg>
